<?xml version="1.0" encoding="utf-8" standalone="no"?>
<!DOCTYPE svg PUBLIC "-//W3C//DTD SVG 1.1//EN"
  "http://www.w3.org/Graphics/SVG/1.1/DTD/svg11.dtd">
<svg xmlns:xlink="http://www.w3.org/1999/xlink" width="476.220472pt" height="294.80315pt" viewBox="0 0 476.220472 294.80315" xmlns="http://www.w3.org/2000/svg" version="1.1">
 <metadata>
  <rdf:RDF xmlns:dc="http://purl.org/dc/elements/1.1/" xmlns:cc="http://creativecommons.org/ns#" xmlns:rdf="http://www.w3.org/1999/02/22-rdf-syntax-ns#">
   <cc:Work>
    <dc:type rdf:resource="http://purl.org/dc/dcmitype/StillImage"/>
    <dc:format>image/svg+xml</dc:format>
    <dc:creator>
     <cc:Agent>
      <dc:title>Matplotlib v3.11.2, https://matplotlib.org/</dc:title>
     </cc:Agent>
    </dc:creator>
   </cc:Work>
  </rdf:RDF>
 </metadata>
 <defs>
  <style type="text/css">*{stroke-linejoin: round; stroke-linecap: butt}</style>
 </defs>
 <g id="figure_1">
  <g id="patch_1">
   <path d="M 0 294.80315 
L 476.220472 294.80315 
L 476.220472 0 
L 0 0 
L 0 294.80315 
z
" style="fill: none"/>
  </g>
  <g id="axes_1">
   <g id="line2d_1">
    <path d="M 49.606299 28.346457 
L 49.606299 286.299213 
" clip-path="url(#p3482fc6496)" style="fill: none; stroke-dasharray: 2.7,1.8; stroke-dashoffset: 0; stroke: #c9d0d8; stroke-width: 0.9"/>
   </g>
   <g id="line2d_2">
    <path d="M 175.275591 28.346457 
L 175.275591 286.299213 
" clip-path="url(#p3482fc6496)" style="fill: none; stroke-dasharray: 2.7,1.8; stroke-dashoffset: 0; stroke: #c9d0d8; stroke-width: 0.9"/>
   </g>
   <g id="line2d_3">
    <path d="M 300.944882 28.346457 
L 300.944882 286.299213 
" clip-path="url(#p3482fc6496)" style="fill: none; stroke-dasharray: 2.7,1.8; stroke-dashoffset: 0; stroke: #c9d0d8; stroke-width: 0.9"/>
   </g>
   <g id="line2d_4">
    <path d="M 426.614173 28.346457 
L 426.614173 286.299213 
" clip-path="url(#p3482fc6496)" style="fill: none; stroke-dasharray: 2.7,1.8; stroke-dashoffset: 0; stroke: #c9d0d8; stroke-width: 0.9"/>
   </g>
   <g id="line2d_5">
    <path d="M 5.669291 41.102362 
L 470.551181 41.102362 
" clip-path="url(#p3482fc6496)" style="fill: none; stroke-dasharray: 2.4,1.6; stroke-dashoffset: 0; stroke: #ffa600; stroke-width: 0.8"/>
   </g>
   <g id="line2d_6">
    <path d="M 5.669291 107.716535 
L 470.551181 107.716535 
" clip-path="url(#p3482fc6496)" style="fill: none; stroke-dasharray: 2.4,1.6; stroke-dashoffset: 0; stroke: #ffa600; stroke-width: 0.8"/>
   </g>
   <g id="line2d_7">
    <path d="M 5.669291 206.929134 
L 470.551181 206.929134 
" clip-path="url(#p3482fc6496)" style="fill: none; stroke-dasharray: 2.4,1.6; stroke-dashoffset: 0; stroke: #ffa600; stroke-width: 0.8"/>
   </g>
   <g id="patch_2">
    <path d="M 10.204724 28.346457 
L 89.007874 28.346457 
Q 93.543307 28.346457 93.543307 23.811024 
L 93.543307 8.787402 
Q 93.543307 4.251969 89.007874 4.251969 
L 10.204724 4.251969 
Q 5.669291 4.251969 5.669291 8.787402 
L 5.669291 23.811024 
Q 5.669291 28.346457 10.204724 28.346457 
z
" clip-path="url(#p3482fc6496)" style="fill: #2e7d5b; stroke: #2e7d5b; stroke-width: 0.9; stroke-linejoin: miter"/>
   </g>
   <g id="patch_3">
    <path d="M 135.874016 28.346457 
L 214.677165 28.346457 
Q 219.212598 28.346457 219.212598 23.811024 
L 219.212598 8.787402 
Q 219.212598 4.251969 214.677165 4.251969 
L 135.874016 4.251969 
Q 131.338583 4.251969 131.338583 8.787402 
L 131.338583 23.811024 
Q 131.338583 28.346457 135.874016 28.346457 
z
" clip-path="url(#p3482fc6496)" style="fill: #58508d; stroke: #58508d; stroke-width: 0.9; stroke-linejoin: miter"/>
   </g>
   <g id="patch_4">
    <path d="M 261.543307 28.346457 
L 340.346457 28.346457 
Q 344.88189 28.346457 344.88189 23.811024 
L 344.88189 8.787402 
Q 344.88189 4.251969 340.346457 4.251969 
L 261.543307 4.251969 
Q 257.007874 4.251969 257.007874 8.787402 
L 257.007874 23.811024 
Q 257.007874 28.346457 261.543307 28.346457 
z
" clip-path="url(#p3482fc6496)" style="fill: #003f5c; stroke: #003f5c; stroke-width: 0.9; stroke-linejoin: miter"/>
   </g>
   <g id="patch_5">
    <path d="M 387.212598 28.346457 
L 466.015748 28.346457 
Q 470.551181 28.346457 470.551181 23.811024 
L 470.551181 8.787402 
Q 470.551181 4.251969 466.015748 4.251969 
L 387.212598 4.251969 
Q 382.677165 4.251969 382.677165 8.787402 
L 382.677165 23.811024 
Q 382.677165 28.346457 387.212598 28.346457 
z
" clip-path="url(#p3482fc6496)" style="fill: #ffa600; stroke: #ffa600; stroke-width: 0.9; stroke-linejoin: miter"/>
   </g>
   <g id="text_1">
    <text style="font-weight: 600; font-size: 8.2px; font-family: 'Source Sans 3'; text-anchor: middle; fill: #ffffff" x="49.606299" y="18.139728" transform="rotate(-0 49.606299 18.139728)">guest vCPU</text>
   </g>
   <g id="text_2">
    <text style="font-weight: 600; font-size: 8.2px; font-family: 'Source Sans 3'; text-anchor: middle; fill: #ffffff" x="175.275591" y="18.579197" transform="rotate(-0 175.275591 18.579197)">KVM (host kernel)</text>
   </g>
   <g id="text_3">
    <text style="font-weight: 600; font-size: 8.2px; font-family: 'Source Sans 3'; text-anchor: middle; fill: #ffffff" x="300.944882" y="18.152541" transform="rotate(-0 300.944882 18.152541)">your VMM</text>
   </g>
   <g id="text_4">
    <text style="font-weight: 600; font-size: 8.2px; font-family: 'Source Sans 3'; text-anchor: middle; fill: #1b2430" x="426.614173" y="19.152556" transform="rotate(-0 426.614173 19.152556)">device thread</text>
   </g>
   <g id="patch_6">
    <path d="M 49.606299 59.527559 
Q 112.440945 59.527559 174.26936 59.527559 
" clip-path="url(#p3482fc6496)" style="fill: none; stroke: #1b2430; stroke-width: 0.9; stroke-linecap: round"/>
    <path d="M 171.46936 58.127559 
L 174.26936 59.527559 
L 171.46936 60.927559 
z
" clip-path="url(#p3482fc6496)" style="fill: #1b2430; stroke: #1b2430; stroke-width: 0.9; stroke-linecap: round"/>
   </g>
   <g id="line2d_8">
    <path d="M 175.275591 82.204724 
L 197.952756 82.204724 
L 197.952756 93.543307 
" clip-path="url(#p3482fc6496)" style="fill: none; stroke: #1b2430; stroke-width: 0.9"/>
   </g>
   <g id="patch_7">
    <path d="M 197.952756 93.543307 
Q 187.464567 93.543307 177.982609 93.543307 
" clip-path="url(#p3482fc6496)" style="fill: none; stroke: #1b2430; stroke-width: 0.9; stroke-linecap: round"/>
    <path d="M 180.982609 95.043307 
L 177.982609 93.543307 
L 180.982609 92.043307 
z
" clip-path="url(#p3482fc6496)" style="fill: #1b2430; stroke: #1b2430; stroke-width: 0.9; stroke-linecap: round"/>
   </g>
   <g id="patch_8">
    <path d="M 49.606299 126.141732 
Q 112.440945 126.141732 174.26936 126.141732 
" clip-path="url(#p3482fc6496)" style="fill: none; stroke: #1b2430; stroke-width: 0.9; stroke-linecap: round"/>
    <path d="M 171.46936 124.741732 
L 174.26936 126.141732 
L 171.46936 127.541732 
z
" clip-path="url(#p3482fc6496)" style="fill: #1b2430; stroke: #1b2430; stroke-width: 0.9; stroke-linecap: round"/>
   </g>
   <g id="patch_9">
    <path d="M 175.275591 145.984252 
Q 238.110236 145.984252 299.938651 145.984252 
" clip-path="url(#p3482fc6496)" style="fill: none; stroke-dasharray: 2.7,1.8; stroke-dashoffset: 0; stroke: #58508d; stroke-width: 0.9; stroke-linecap: round"/>
    <path d="M 297.138651 144.584252 
L 299.938651 145.984252 
L 297.138651 147.384252 
z
" clip-path="url(#p3482fc6496)" style="fill: #58508d; stroke-dasharray: 2.7,1.8; stroke-dashoffset: 0; stroke: #58508d; stroke-width: 0.9; stroke-linecap: round"/>
   </g>
   <g id="line2d_9">
    <path d="M 300.944882 165.826772 
L 323.622047 165.826772 
L 323.622047 177.165354 
" clip-path="url(#p3482fc6496)" style="fill: none; stroke: #1b2430; stroke-width: 0.9"/>
   </g>
   <g id="patch_10">
    <path d="M 323.622047 177.165354 
Q 313.133858 177.165354 303.6519 177.165354 
" clip-path="url(#p3482fc6496)" style="fill: none; stroke: #1b2430; stroke-width: 0.9; stroke-linecap: round"/>
    <path d="M 306.6519 178.665354 
L 303.6519 177.165354 
L 306.6519 175.665354 
z
" clip-path="url(#p3482fc6496)" style="fill: #1b2430; stroke: #1b2430; stroke-width: 0.9; stroke-linecap: round"/>
   </g>
   <g id="patch_11">
    <path d="M 300.944882 191.338583 
Q 238.110236 191.338583 176.281821 191.338583 
" clip-path="url(#p3482fc6496)" style="fill: none; stroke: #1b2430; stroke-width: 0.9; stroke-linecap: round"/>
    <path d="M 179.081821 192.738583 
L 176.281821 191.338583 
L 179.081821 189.938583 
z
" clip-path="url(#p3482fc6496)" style="fill: #1b2430; stroke: #1b2430; stroke-width: 0.9; stroke-linecap: round"/>
   </g>
   <g id="patch_12">
    <path d="M 49.606299 225.354331 
Q 112.440945 225.354331 174.26936 225.354331 
" clip-path="url(#p3482fc6496)" style="fill: none; stroke: #1b2430; stroke-width: 0.9; stroke-linecap: round"/>
    <path d="M 171.46936 223.954331 
L 174.26936 225.354331 
L 171.46936 226.754331 
z
" clip-path="url(#p3482fc6496)" style="fill: #1b2430; stroke: #1b2430; stroke-width: 0.9; stroke-linecap: round"/>
   </g>
   <g id="patch_13">
    <path d="M 175.275591 245.19685 
Q 300.944882 245.19685 425.607943 245.19685 
" clip-path="url(#p3482fc6496)" style="fill: none; stroke-dasharray: 2.7,1.8; stroke-dashoffset: 0; stroke: #58508d; stroke-width: 0.9; stroke-linecap: round"/>
    <path d="M 422.807943 243.79685 
L 425.607943 245.19685 
L 422.807943 246.59685 
z
" clip-path="url(#p3482fc6496)" style="fill: #58508d; stroke-dasharray: 2.7,1.8; stroke-dashoffset: 0; stroke: #58508d; stroke-width: 0.9; stroke-linecap: round"/>
   </g>
   <g id="line2d_10">
    <path d="M 426.614173 267.874016 
L 403.937008 267.874016 
L 403.937008 279.212598 
" clip-path="url(#p3482fc6496)" style="fill: none; stroke: #1b2430; stroke-width: 0.9"/>
   </g>
   <g id="patch_14">
    <path d="M 403.937008 279.212598 
Q 414.425197 279.212598 423.907155 279.212598 
" clip-path="url(#p3482fc6496)" style="fill: none; stroke: #1b2430; stroke-width: 0.9; stroke-linecap: round"/>
    <path d="M 420.907155 277.712598 
L 423.907155 279.212598 
L 420.907155 280.712598 
z
" clip-path="url(#p3482fc6496)" style="fill: #1b2430; stroke: #1b2430; stroke-width: 0.9; stroke-linecap: round"/>
   </g>
   <g id="text_5">
    <text style="font-weight: 700; font-size: 7.2px; font-family: 'Source Sans 3'; text-anchor: start; fill: #ffa600" x="11.338583" y="38.559375" transform="rotate(-0 11.338583 38.559375)">CPUID: handled inside KVM</text>
   </g>
   <g id="text_6">
    <text style="font-size: 7.6px; font-family: 'Source Sans 3'; text-anchor: middle; fill: #1b2430" x="112.440945" y="56.700099" transform="rotate(-0 112.440945 56.700099)">VM exit, reason 10: CPUID</text>
   </g>
   <g id="text_7">
    <text style="font-style: italic; font-size: 6.8px; font-family: 'Source Sans 3'; text-anchor: middle; fill: #5a6472" x="112.440945" y="66.586292" transform="rotate(-0 112.440945 66.586292)">the CPU saves guest state in the VMCS</text>
   </g>
   <g id="text_8">
    <text style="font-size: 7.6px; font-family: 'Source Sans 3'; text-anchor: start; fill: #1b2430" x="202.204724" y="89.800734" transform="rotate(-0 202.204724 89.800734)">emulate, skip the instruction, VMRESUME</text>
   </g>
   <g id="text_9">
    <text style="font-weight: 700; font-size: 7.2px; font-family: 'Source Sans 3'; text-anchor: start; fill: #ffa600" x="11.338583" y="104.518236" transform="rotate(-0 11.338583 104.518236)">OUT to port 0x3F8: handled in your VMM</text>
   </g>
   <g id="text_10">
    <text style="font-size: 7.6px; font-family: 'Source Sans 3'; text-anchor: middle; fill: #1b2430" x="112.440945" y="123.374835" transform="rotate(-0 112.440945 123.374835)">VM exit, reason 30: I/O instruction</text>
   </g>
   <g id="text_11">
    <text style="font-size: 7.6px; font-family: 'Source Sans 3'; text-anchor: middle; fill: #1b2430" x="238.110236" y="143.225073" transform="rotate(-0 238.110236 143.225073)">KVM_RUN returns KVM_EXIT_IO</text>
   </g>
   <g id="text_12">
    <text style="font-size: 7.6px; font-family: 'Source Sans 3'; text-anchor: start; fill: #1b2430" x="327.874016" y="174.156063" transform="rotate(-0 327.874016 174.156063)">emulate the 16550's THR</text>
   </g>
   <g id="text_13">
    <text style="font-size: 7.6px; font-family: 'Source Sans 3'; text-anchor: middle; fill: #1b2430" x="238.110236" y="188.632841" transform="rotate(-0 238.110236 188.632841)">ioctl(KVM_RUN), then VMRESUME</text>
   </g>
   <g id="text_14">
    <text style="font-weight: 700; font-size: 7.2px; font-family: 'Source Sans 3'; text-anchor: start; fill: #ffa600" x="11.338583" y="203.670084" transform="rotate(-0 11.338583 203.670084)">virtio doorbell registered with KVM_IOEVENTFD</text>
   </g>
   <g id="text_15">
    <text style="font-size: 7.6px; font-family: 'Source Sans 3'; text-anchor: middle; fill: #1b2430" x="112.440945" y="222.492433" transform="rotate(-0 112.440945 222.492433)">VM exit on the notify address</text>
   </g>
   <g id="text_16">
    <text style="font-size: 7.6px; font-family: 'Source Sans 3'; text-anchor: middle; fill: #1b2430" x="300.944882" y="242.277953" transform="rotate(-0 300.944882 242.277953)">signal the eventfd</text>
   </g>
   <g id="text_17">
    <text style="font-style: italic; font-size: 6.8px; font-family: 'Source Sans 3'; text-anchor: middle; fill: #5a6472" x="300.944882" y="252.306583" transform="rotate(-0 300.944882 252.306583)">KVM resumes the vCPU at once; no return to userspace</text>
   </g>
   <g id="text_18">
    <text style="font-size: 7.6px; font-family: 'Source Sans 3'; text-anchor: end; fill: #1b2430" x="399.685039" y="275.470026" transform="rotate(-0 399.685039 275.470026)">process the virtqueue, then KVM_IRQFD</text>
   </g>
  </g>
 </g>
 <defs>
  <clipPath id="p3482fc6496">
   <rect x="0" y="0" width="476.220472" height="294.80315"/>
  </clipPath>
 </defs>
</svg>
