<?xml version="1.0" encoding="utf-8" standalone="no"?>
<!DOCTYPE svg PUBLIC "-//W3C//DTD SVG 1.1//EN"
  "http://www.w3.org/Graphics/SVG/1.1/DTD/svg11.dtd">
<svg xmlns:xlink="http://www.w3.org/1999/xlink" width="484.084249pt" height="181.718539pt" viewBox="0 0 484.084249 181.718539" xmlns="http://www.w3.org/2000/svg" version="1.1">
 <metadata>
  <rdf:RDF xmlns:dc="http://purl.org/dc/elements/1.1/" xmlns:cc="http://creativecommons.org/ns#" xmlns:rdf="http://www.w3.org/1999/02/22-rdf-syntax-ns#">
   <cc:Work>
    <dc:type rdf:resource="http://purl.org/dc/dcmitype/StillImage"/>
    <dc:format>image/svg+xml</dc:format>
    <dc:creator>
     <cc:Agent>
      <dc:title>Matplotlib v3.11.2, https://matplotlib.org/</dc:title>
     </cc:Agent>
    </dc:creator>
   </cc:Work>
  </rdf:RDF>
 </metadata>
 <defs>
  <style type="text/css">*{stroke-linejoin: round; stroke-linecap: butt}</style>
 </defs>
 <g id="figure_1">
  <g id="patch_1">
   <path d="M 0 181.718539 
L 484.084249 181.718539 
L 484.084249 0 
L 0 0 
L 0 181.718539 
z
" style="fill: none"/>
  </g>
  <g id="axes_1">
   <g id="line2d_1">
    <path d="M 359.35984 51.023622 
L 308.336218 62.362205 
" clip-path="url(#pdbd359b805)" style="fill: none; stroke: #5a6472; stroke-width: 0.5"/>
   </g>
   <g id="line2d_2">
    <path d="M 359.35984 51.023622 
L 410.383462 62.362205 
" clip-path="url(#pdbd359b805)" style="fill: none; stroke: #5a6472; stroke-width: 0.5"/>
   </g>
   <g id="line2d_3">
    <path d="M 308.336218 79.370079 
L 285.659052 90.708661 
" clip-path="url(#pdbd359b805)" style="fill: none; stroke: #5a6472; stroke-width: 0.5"/>
   </g>
   <g id="line2d_4">
    <path d="M 308.336218 79.370079 
L 331.013383 90.708661 
" clip-path="url(#pdbd359b805)" style="fill: none; stroke: #5a6472; stroke-width: 0.5"/>
   </g>
   <g id="line2d_5">
    <path d="M 410.383462 79.370079 
L 387.706296 90.708661 
" clip-path="url(#pdbd359b805)" style="fill: none; stroke: #5a6472; stroke-width: 0.5"/>
   </g>
   <g id="line2d_6">
    <path d="M 410.383462 79.370079 
L 433.060627 90.708661 
" clip-path="url(#pdbd359b805)" style="fill: none; stroke: #5a6472; stroke-width: 0.5"/>
   </g>
   <g id="patch_2">
    <path d="M 17.218107 172.062992 
L 199.769288 172.062992 
L 199.769288 37.700787 
L 17.218107 37.700787 
L 17.218107 172.062992 
z
" clip-path="url(#pdbd359b805)" style="fill: none; stroke: #003f5c; stroke-width: 0.7; stroke-linejoin: miter"/>
   </g>
   <g id="patch_3">
    <path d="M 22.887399 166.393701 
L 83.548816 166.393701 
L 83.548816 60.377953 
L 22.887399 60.377953 
L 22.887399 166.393701 
z
" clip-path="url(#pdbd359b805)" style="fill: none; stroke: #58508d; stroke-width: 0.6; stroke-linejoin: miter"/>
   </g>
   <g id="patch_4">
    <path d="M 124.934643 163.559055 
L 194.099997 163.559055 
L 194.099997 43.370079 
L 124.934643 43.370079 
L 124.934643 163.559055 
z
" clip-path="url(#pdbd359b805)" style="fill: none; stroke: #ff6361; stroke-width: 0.6; stroke-linejoin: miter"/>
   </g>
   <g id="patch_5">
    <path d="M 27.139367 162.141732 
L 70.79291 162.141732 
L 70.79291 118.488189 
L 27.139367 118.488189 
L 27.139367 162.141732 
z
" clip-path="url(#pdbd359b805)" style="fill: none; stroke-dasharray: 1.35,0.9; stroke-dashoffset: 0; stroke: #58508d; stroke-width: 0.45; stroke-linejoin: miter"/>
   </g>
   <g id="patch_6">
    <path d="M 29.974013 108.283465 
L 79.296847 108.283465 
L 79.296847 64.629921 
L 29.974013 64.629921 
L 29.974013 108.283465 
z
" clip-path="url(#pdbd359b805)" style="fill: none; stroke-dasharray: 1.35,0.9; stroke-dashoffset: 0; stroke: #58508d; stroke-width: 0.45; stroke-linejoin: miter"/>
   </g>
   <g id="patch_7">
    <path d="M 129.186611 159.307087 
L 181.344092 159.307087 
L 181.344092 115.653543 
L 129.186611 115.653543 
L 129.186611 159.307087 
z
" clip-path="url(#pdbd359b805)" style="fill: none; stroke-dasharray: 1.35,0.9; stroke-dashoffset: 0; stroke: #ff6361; stroke-width: 0.45; stroke-linejoin: miter"/>
   </g>
   <g id="patch_8">
    <path d="M 134.855903 96.944882 
L 189.848029 96.944882 
L 189.848029 47.622047 
L 134.855903 47.622047 
L 134.855903 96.944882 
z
" clip-path="url(#pdbd359b805)" style="fill: none; stroke-dasharray: 1.35,0.9; stroke-dashoffset: 0; stroke: #ff6361; stroke-width: 0.45; stroke-linejoin: miter"/>
   </g>
   <g id="patch_9">
    <path d="M 302.666926 150.23622 
L 326.47795 150.23622 
L 326.47795 119.055118 
L 302.666926 119.055118 
z
" clip-path="url(#pdbd359b805)" style="fill: #f4f6f8; stroke: #c9d0d8; stroke-width: 0.4; stroke-linejoin: miter"/>
   </g>
   <g id="patch_10">
    <path d="M 328.178737 150.23622 
L 351.989761 150.23622 
L 351.989761 119.055118 
L 328.178737 119.055118 
z
" clip-path="url(#pdbd359b805)" style="fill: #f4f6f8; stroke: #c9d0d8; stroke-width: 0.4; stroke-linejoin: miter"/>
   </g>
   <g id="patch_11">
    <path d="M 353.690548 150.23622 
L 377.501572 150.23622 
L 377.501572 119.055118 
L 353.690548 119.055118 
z
" clip-path="url(#pdbd359b805)" style="fill: #f4f6f8; stroke: #c9d0d8; stroke-width: 0.4; stroke-linejoin: miter"/>
   </g>
   <g id="patch_12">
    <path d="M 379.202359 150.23622 
L 403.013383 150.23622 
L 403.013383 119.055118 
L 379.202359 119.055118 
z
" clip-path="url(#pdbd359b805)" style="fill: #f4f6f8; stroke: #c9d0d8; stroke-width: 0.4; stroke-linejoin: miter"/>
   </g>
   <g id="patch_13">
    <path d="M 404.71417 150.23622 
L 428.525194 150.23622 
L 428.525194 119.055118 
L 404.71417 119.055118 
z
" clip-path="url(#pdbd359b805)" style="fill: #f4f6f8; stroke: #c9d0d8; stroke-width: 0.4; stroke-linejoin: miter"/>
   </g>
   <g id="patch_14">
    <path d="M 430.225981 150.23622 
L 454.037005 150.23622 
L 454.037005 119.055118 
L 430.225981 119.055118 
z
" clip-path="url(#pdbd359b805)" style="fill: #f4f6f8; stroke: #c9d0d8; stroke-width: 0.4; stroke-linejoin: miter"/>
   </g>
   <g id="patch_15">
    <path d="M 455.737792 150.23622 
L 479.548816 150.23622 
L 479.548816 119.055118 
L 455.737792 119.055118 
z
" clip-path="url(#pdbd359b805)" style="fill: #f4f6f8; stroke: #c9d0d8; stroke-width: 0.4; stroke-linejoin: miter"/>
   </g>
   <g id="patch_16">
    <path d="M 30.540942 153.070866 
L 50.383462 158.740157 
L 39.044879 136.062992 
z
" clip-path="url(#pdbd359b805)" style="fill: #e8eff3; stroke: #003f5c; stroke-width: 0.45; stroke-linejoin: miter"/>
   </g>
   <g id="patch_17">
    <path d="M 47.548816 136.062992 
L 67.391336 144.566929 
L 61.722044 121.889764 
z
" clip-path="url(#pdbd359b805)" style="fill: #e8eff3; stroke: #003f5c; stroke-width: 0.45; stroke-linejoin: miter"/>
   </g>
   <g id="patch_18">
    <path d="M 33.375588 96.377953 
L 53.218107 104.88189 
L 41.879525 79.370079 
z
" clip-path="url(#pdbd359b805)" style="fill: #e8eff3; stroke: #003f5c; stroke-width: 0.45; stroke-linejoin: miter"/>
   </g>
   <g id="patch_19">
    <path d="M 56.052753 85.03937 
L 75.895273 93.543307 
L 67.391336 68.031496 
z
" clip-path="url(#pdbd359b805)" style="fill: #e8eff3; stroke: #003f5c; stroke-width: 0.45; stroke-linejoin: miter"/>
   </g>
   <g id="patch_20">
    <path d="M 132.588186 147.401575 
L 152.430706 155.905512 
L 143.926769 130.393701 
z
" clip-path="url(#pdbd359b805)" style="fill: #e8eff3; stroke: #003f5c; stroke-width: 0.45; stroke-linejoin: miter"/>
   </g>
   <g id="patch_21">
    <path d="M 155.265351 136.062992 
L 177.942517 141.732283 
L 166.603934 119.055118 
z
" clip-path="url(#pdbd359b805)" style="fill: #e8eff3; stroke: #003f5c; stroke-width: 0.45; stroke-linejoin: miter"/>
   </g>
   <g id="patch_22">
    <path d="M 138.257477 85.03937 
L 158.099997 93.543307 
L 149.59606 68.031496 
z
" clip-path="url(#pdbd359b805)" style="fill: #e8eff3; stroke: #003f5c; stroke-width: 0.45; stroke-linejoin: miter"/>
   </g>
   <g id="patch_23">
    <path d="M 163.769288 68.031496 
L 186.446454 76.535433 
L 177.942517 51.023622 
z
" clip-path="url(#pdbd359b805)" style="fill: #e8eff3; stroke: #003f5c; stroke-width: 0.45; stroke-linejoin: miter"/>
   </g>
   <g id="patch_24">
    <path d="M 344.052753 51.023622 
L 374.666926 51.023622 
Q 376.367714 51.023622 376.367714 49.322835 
L 376.367714 35.716535 
Q 376.367714 34.015748 374.666926 34.015748 
L 344.052753 34.015748 
Q 342.351966 34.015748 342.351966 35.716535 
L 342.351966 49.322835 
Q 342.351966 51.023622 344.052753 51.023622 
z
" clip-path="url(#pdbd359b805)" style="fill: #e8eff3; stroke: #003f5c; stroke-width: 0.9; stroke-linejoin: miter"/>
   </g>
   <g id="patch_25">
    <path d="M 293.029131 79.370079 
L 323.643304 79.370079 
Q 325.344092 79.370079 325.344092 77.669291 
L 325.344092 64.062992 
Q 325.344092 62.362205 323.643304 62.362205 
L 293.029131 62.362205 
Q 291.328344 62.362205 291.328344 64.062992 
L 291.328344 77.669291 
Q 291.328344 79.370079 293.029131 79.370079 
z
" clip-path="url(#pdbd359b805)" style="fill: #efeef6; stroke: #58508d; stroke-width: 0.9; stroke-linejoin: miter"/>
   </g>
   <g id="patch_26">
    <path d="M 395.076375 79.370079 
L 425.690548 79.370079 
Q 427.391336 79.370079 427.391336 77.669291 
L 427.391336 64.062992 
Q 427.391336 62.362205 425.690548 62.362205 
L 395.076375 62.362205 
Q 393.375588 62.362205 393.375588 64.062992 
L 393.375588 77.669291 
Q 393.375588 79.370079 395.076375 79.370079 
z
" clip-path="url(#pdbd359b805)" style="fill: #fff0ef; stroke: #ff6361; stroke-width: 0.9; stroke-linejoin: miter"/>
   </g>
   <g id="patch_27">
    <path d="M 270.351966 107.716535 
L 300.966139 107.716535 
Q 302.666926 107.716535 302.666926 106.015748 
L 302.666926 92.409449 
Q 302.666926 90.708661 300.966139 90.708661 
L 270.351966 90.708661 
Q 268.651178 90.708661 268.651178 92.409449 
L 268.651178 106.015748 
Q 268.651178 107.716535 270.351966 107.716535 
z
" clip-path="url(#pdbd359b805)" style="fill: #efeef6; stroke: #58508d; stroke-width: 0.9; stroke-linejoin: miter"/>
   </g>
   <g id="patch_28">
    <path d="M 315.706296 107.716535 
L 346.320469 107.716535 
Q 348.021257 107.716535 348.021257 106.015748 
L 348.021257 92.409449 
Q 348.021257 90.708661 346.320469 90.708661 
L 315.706296 90.708661 
Q 314.005509 90.708661 314.005509 92.409449 
L 314.005509 106.015748 
Q 314.005509 107.716535 315.706296 107.716535 
z
" clip-path="url(#pdbd359b805)" style="fill: #efeef6; stroke: #58508d; stroke-width: 0.9; stroke-linejoin: miter"/>
   </g>
   <g id="patch_29">
    <path d="M 372.39921 107.716535 
L 403.013383 107.716535 
Q 404.71417 107.716535 404.71417 106.015748 
L 404.71417 92.409449 
Q 404.71417 90.708661 403.013383 90.708661 
L 372.39921 90.708661 
Q 370.698422 90.708661 370.698422 92.409449 
L 370.698422 106.015748 
Q 370.698422 107.716535 372.39921 107.716535 
z
" clip-path="url(#pdbd359b805)" style="fill: #fff0ef; stroke-dasharray: 2.7,1.8; stroke-dashoffset: 0; stroke: #ff6361; stroke-width: 0.9; stroke-linejoin: miter"/>
   </g>
   <g id="patch_30">
    <path d="M 417.75354 107.716535 
L 448.367714 107.716535 
Q 450.068501 107.716535 450.068501 106.015748 
L 450.068501 92.409449 
Q 450.068501 90.708661 448.367714 90.708661 
L 417.75354 90.708661 
Q 416.052753 90.708661 416.052753 92.409449 
L 416.052753 106.015748 
Q 416.052753 107.716535 417.75354 107.716535 
z
" clip-path="url(#pdbd359b805)" style="fill: #fff0ef; stroke-dasharray: 2.7,1.8; stroke-dashoffset: 0; stroke: #ff6361; stroke-width: 0.9; stroke-linejoin: miter"/>
   </g>
   <g id="text_1">
    <text style="font-size: 6px; font-family: 'Source Sans 3'; text-anchor: middle; fill: #1b2430" x="359.35984" y="44.451404" transform="rotate(-0 359.35984 44.451404)">0  A</text>
   </g>
   <g id="text_2">
    <text style="font-size: 6px; font-family: 'Source Sans 3'; text-anchor: middle; fill: #1b2430" x="308.336218" y="72.833954" transform="rotate(-0 308.336218 72.833954)">1  B</text>
   </g>
   <g id="text_3">
    <text style="font-size: 6px; font-family: 'Source Sans 3'; text-anchor: middle; fill: #1b2430" x="410.383462" y="72.833954" transform="rotate(-0 410.383462 72.833954)">2  C</text>
   </g>
   <g id="text_4">
    <text style="font-size: 6px; font-family: 'Source Sans 3'; text-anchor: middle; fill: #1b2430" x="285.659052" y="101.126505" transform="rotate(-0 285.659052 101.126505)">3</text>
   </g>
   <g id="text_5">
    <text style="font-size: 6px; font-family: 'Source Sans 3'; text-anchor: middle; fill: #1b2430" x="331.013383" y="101.126505" transform="rotate(-0 331.013383 101.126505)">4</text>
   </g>
   <g id="text_6">
    <text style="font-size: 6px; font-family: 'Source Sans 3'; text-anchor: middle; fill: #1b2430" x="387.706296" y="101.090411" transform="rotate(-0 387.706296 101.090411)">5</text>
   </g>
   <g id="text_7">
    <text style="font-size: 6px; font-family: 'Source Sans 3'; text-anchor: middle; fill: #1b2430" x="433.060627" y="101.126505" transform="rotate(-0 433.060627 101.126505)">6</text>
   </g>
   <g id="patch_31">
    <path d="M 9.281099 54.992126 
Q 35.35984 65.976378 60.511249 76.570042 
" clip-path="url(#pdbd359b805)" style="fill: none; stroke: #ffa600; stroke-width: 0.9; stroke-linecap: round"/>
    <path d="M 59.056242 74.872116 
L 60.511249 76.570042 
L 58.279904 76.715293 
z
" clip-path="url(#pdbd359b805)" style="fill: #ffa600; stroke: #ffa600; stroke-width: 0.9; stroke-linecap: round"/>
   </g>
   <g id="line2d_7">
    <path d="M 61.43858 76.96063 
L 121.249603 102.047244 
" clip-path="url(#pdbd359b805)" style="fill: none; stroke-dasharray: 1.8,1.2; stroke-dashoffset: 0; stroke: #ffa600; stroke-width: 0.6"/>
   </g>
   <g id="text_8">
    <text style="font-weight: 700; font-size: 7px; font-family: 'Source Sans 3'; text-anchor: start; fill: #003f5c" x="13.533068" y="10.296046" transform="rotate(-0 13.533068 10.296046)">A bounding volume hierarchy: boxes around the scene, and nodes in a buffer</text>
   </g>
   <g id="text_9">
    <text style="font-weight: 700; font-size: 6.4px; font-family: 'Source Sans 3'; text-anchor: start; fill: #003f5c" x="17.218107" y="33.551067" transform="rotate(-0 17.218107 33.551067)">A</text>
   </g>
   <g id="text_10">
    <text style="font-weight: 700; font-size: 6.4px; font-family: 'Source Sans 3'; text-anchor: end; fill: #58508d" x="79.580312" y="68.700673" transform="rotate(-0 79.580312 68.700673)">B</text>
   </g>
   <g id="text_11">
    <text style="font-weight: 700; font-size: 6.4px; font-family: 'Source Sans 3'; text-anchor: end; fill: #ff6361" x="190.131493" y="51.692799" transform="rotate(-0 190.131493 51.692799)">C</text>
   </g>
   <g id="patch_32">
    <path d="M 61.43858 79.511811 
C 62.115161 79.511811 62.764122 79.243002 63.242537 78.764587 
C 63.720952 78.286172 63.989761 77.637211 63.989761 76.96063 
C 63.989761 76.284049 63.720952 75.635088 63.242537 75.156672 
C 62.764122 74.678257 62.115161 74.409449 61.43858 74.409449 
C 60.761999 74.409449 60.113037 74.678257 59.634622 75.156672 
C 59.156207 75.635088 58.887399 76.284049 58.887399 76.96063 
C 58.887399 77.637211 59.156207 78.286172 59.634622 78.764587 
C 60.113037 79.243002 60.761999 79.511811 61.43858 79.511811 
z
" clip-path="url(#pdbd359b805)" style="fill: #ffa600; stroke: #ffa600; stroke-width: 0.9; stroke-linejoin: miter"/>
   </g>
   <g id="text_12">
    <text style="font-size: 6px; font-family: 'Source Sans 3'; text-anchor: start; fill: #5a6472" x="10.131493" y="64.362782" transform="rotate(-0 10.131493 64.362782)">ray</text>
   </g>
   <g id="text_13">
    <text style="font-size: 5.6px; font-family: 'Source Sans 3'; text-anchor: middle; fill: #5a6472" x="107.076375" y="178.848819" transform="rotate(-0 107.076375 178.848819)">C is visited after B, but its children's boxes lie beyond the hit, so none of its triangles is tested</text>
   </g>
   <g id="text_14">
    <text style="font-weight: 700; font-size: 6.2px; font-family: 'Source Sans 3'; text-anchor: start; fill: #1b2430" x="245.974013" y="24.316775" transform="rotate(-0 245.974013 24.316775)">The nodes, in the order the builder writes them</text>
   </g>
   <g id="text_15">
    <text style="font-size: 5.6px; font-family: 'Source Sans 3'; text-anchor: start; fill: #5a6472" x="245.974013" y="126.684409" transform="rotate(-0 245.974013 126.684409)">node</text>
   </g>
   <g id="text_16">
    <text style="font-size: 5.6px; font-family: 'Source Sans 3'; text-anchor: start; fill: #5a6472" x="245.974013" y="136.639357" transform="rotate(-0 245.974013 136.639357)">leftOrFirst</text>
   </g>
   <g id="text_17">
    <text style="font-size: 5.6px; font-family: 'Source Sans 3'; text-anchor: start; fill: #5a6472" x="245.974013" y="146.330929" transform="rotate(-0 245.974013 146.330929)">count</text>
   </g>
   <g id="text_18">
    <text style="font-weight: 700; font-size: 5.8px; font-family: 'JetBrains Mono'; text-anchor: middle; fill: #1b2430" x="314.572438" y="126.841409" transform="rotate(-0 314.572438 126.841409)">0</text>
   </g>
   <g id="text_19">
    <text style="font-size: 5.8px; font-family: 'JetBrains Mono'; text-anchor: middle; fill: #1b2430" x="314.572438" y="136.762669" transform="rotate(-0 314.572438 136.762669)">1</text>
   </g>
   <g id="text_20">
    <text style="font-size: 5.8px; font-family: 'JetBrains Mono'; text-anchor: middle; fill: #1b2430" x="314.572438" y="146.683929" transform="rotate(-0 314.572438 146.683929)">0</text>
   </g>
   <g id="text_21">
    <text style="font-weight: 700; font-size: 5.8px; font-family: 'JetBrains Mono'; text-anchor: middle; fill: #1b2430" x="340.084249" y="126.841409" transform="rotate(-0 340.084249 126.841409)">1</text>
   </g>
   <g id="text_22">
    <text style="font-size: 5.8px; font-family: 'JetBrains Mono'; text-anchor: middle; fill: #1b2430" x="340.084249" y="136.733669" transform="rotate(-0 340.084249 136.733669)">3</text>
   </g>
   <g id="text_23">
    <text style="font-size: 5.8px; font-family: 'JetBrains Mono'; text-anchor: middle; fill: #1b2430" x="340.084249" y="146.683929" transform="rotate(-0 340.084249 146.683929)">0</text>
   </g>
   <g id="text_24">
    <text style="font-weight: 700; font-size: 5.8px; font-family: 'JetBrains Mono'; text-anchor: middle; fill: #1b2430" x="365.59606" y="126.870409" transform="rotate(-0 365.59606 126.870409)">2</text>
   </g>
   <g id="text_25">
    <text style="font-size: 5.8px; font-family: 'JetBrains Mono'; text-anchor: middle; fill: #1b2430" x="365.59606" y="136.733669" transform="rotate(-0 365.59606 136.733669)">5</text>
   </g>
   <g id="text_26">
    <text style="font-size: 5.8px; font-family: 'JetBrains Mono'; text-anchor: middle; fill: #1b2430" x="365.59606" y="146.683929" transform="rotate(-0 365.59606 146.683929)">0</text>
   </g>
   <g id="text_27">
    <text style="font-weight: 700; font-size: 5.8px; font-family: 'JetBrains Mono'; text-anchor: middle; fill: #1b2430" x="391.107871" y="126.812409" transform="rotate(-0 391.107871 126.812409)">3</text>
   </g>
   <g id="text_28">
    <text style="font-size: 5.8px; font-family: 'JetBrains Mono'; text-anchor: middle; fill: #1b2430" x="391.107871" y="136.762669" transform="rotate(-0 391.107871 136.762669)">0</text>
   </g>
   <g id="text_29">
    <text style="font-size: 5.8px; font-family: 'JetBrains Mono'; text-anchor: middle; fill: #1b2430" x="391.107871" y="146.712929" transform="rotate(-0 391.107871 146.712929)">2</text>
   </g>
   <g id="text_30">
    <text style="font-weight: 700; font-size: 5.8px; font-family: 'JetBrains Mono'; text-anchor: middle; fill: #1b2430" x="416.619682" y="126.841409" transform="rotate(-0 416.619682 126.841409)">4</text>
   </g>
   <g id="text_31">
    <text style="font-size: 5.8px; font-family: 'JetBrains Mono'; text-anchor: middle; fill: #1b2430" x="416.619682" y="136.791669" transform="rotate(-0 416.619682 136.791669)">2</text>
   </g>
   <g id="text_32">
    <text style="font-size: 5.8px; font-family: 'JetBrains Mono'; text-anchor: middle; fill: #1b2430" x="416.619682" y="146.712929" transform="rotate(-0 416.619682 146.712929)">2</text>
   </g>
   <g id="text_33">
    <text style="font-weight: 700; font-size: 5.8px; font-family: 'JetBrains Mono'; text-anchor: middle; fill: #1b2430" x="442.131493" y="126.812409" transform="rotate(-0 442.131493 126.812409)">5</text>
   </g>
   <g id="text_34">
    <text style="font-size: 5.8px; font-family: 'JetBrains Mono'; text-anchor: middle; fill: #1b2430" x="442.131493" y="136.762669" transform="rotate(-0 442.131493 136.762669)">4</text>
   </g>
   <g id="text_35">
    <text style="font-size: 5.8px; font-family: 'JetBrains Mono'; text-anchor: middle; fill: #1b2430" x="442.131493" y="146.712929" transform="rotate(-0 442.131493 146.712929)">2</text>
   </g>
   <g id="text_36">
    <text style="font-weight: 700; font-size: 5.8px; font-family: 'JetBrains Mono'; text-anchor: middle; fill: #1b2430" x="467.643304" y="126.812409" transform="rotate(-0 467.643304 126.812409)">6</text>
   </g>
   <g id="text_37">
    <text style="font-size: 5.8px; font-family: 'JetBrains Mono'; text-anchor: middle; fill: #1b2430" x="467.643304" y="136.733669" transform="rotate(-0 467.643304 136.733669)">6</text>
   </g>
   <g id="text_38">
    <text style="font-size: 5.8px; font-family: 'JetBrains Mono'; text-anchor: middle; fill: #1b2430" x="467.643304" y="146.712929" transform="rotate(-0 467.643304 146.712929)">2</text>
   </g>
   <g id="text_39">
    <text style="font-size: 5.4px; font-family: 'Source Sans 3'; fill: #5a6472" transform="translate(302.666926 163.758452)">inner node: children at leftOrFirst and leftOrFirst + 1, count 0</text>
    <text style="font-size: 5.4px; font-family: 'Source Sans 3'; fill: #5a6472" transform="translate(302.666926 171.846943)">leaf: count triangles from leftOrFirst</text>
   </g>
  </g>
 </g>
 <defs>
  <clipPath id="pdbd359b805">
   <rect x="7.863777" y="-0" width="476.220472" height="181.417323"/>
  </clipPath>
 </defs>
</svg>
